<svg id="Capa_1" data-name="Capa 1" xmlns="http://www.w3.org/2000/svg" viewBox="0 0 1127 606"><defs><style>.cls-1{fill:#791f8f;}.cls-2{fill:#3539d8;}.cls-3{fill:#3c3c3b;}</style></defs><path class="cls-1" d="M163.74,400.71c-2-.33-4-.51-6-1-14.06-3.57-22.74-12.54-26.17-26.57a34.57,34.57,0,0,1-.68-7.42c-.18-10.26-3.9-19-11.48-25.85A33,33,0,0,0,99,331.1c-4.55-.31-9.16-.18-13.57-1.73-13.29-4.7-21.23-13.93-23.67-27.84a24.79,24.79,0,0,1-.31-4.31q0-35.58,0-71.17a34.25,34.25,0,0,1,34.06-33.86q35.55,0,71.09,0A34.17,34.17,0,0,1,199.88,220c2.16,12-.65,22.62-9.2,31.4a33.1,33.1,0,0,1-24.5,10.27c-10.67,0-19.74,3.87-26.84,11.94A34,34,0,0,0,131,292.71,34.5,34.5,0,0,0,165.46,331c10.16,0,18.89,3.54,25.87,11a33.06,33.06,0,0,1,8.93,19.31c1,8.85-.64,17.09-5.82,24.41a33.55,33.55,0,0,1-25.23,14.69,8.14,8.14,0,0,0-1.27.32Z"/><path class="cls-2" d="M251.46,331.22c-3.19,0-6.39.09-9.57,0-11.29-.38-21.63-8.8-24.5-20.27a21.37,21.37,0,0,1-.78-5.31c.06-7.28-.21-14.6.55-21.82,1.08-10.31,10.73-19.9,21-21.47a86.89,86.89,0,0,1,10.72-.62c3.44-.1,6.88,0,10.32,0a27.22,27.22,0,0,0,26.65-22.06,33.88,33.88,0,0,0,.48-5.95c0-5,0-10-.08-15-.29-12.42-10.18-23.7-22.53-25.34-4.72-.62-9.55-.37-14.32-.58-4-.18-8,0-11.9-.74-11-2-20.05-12.33-20.65-23.44a193.47,193.47,0,0,1,0-21.54c.65-11.51,10.94-22.15,22.61-23.44,5.18-.57,10.45-.3,15.68-.39a39.46,39.46,0,0,1,12,1.16c9.86,2.88,18.06,12.53,18.73,22.76.38,5.86.28,11.77.3,17.65a27.1,27.1,0,0,0,20.91,26.51,30.91,30.91,0,0,0,6.5.8c5.33.11,10.67,0,16,0A26.83,26.83,0,0,1,355.32,214a49,49,0,0,1,.56,8c0,5.29.16,10.61-.29,15.86a26.38,26.38,0,0,1-18.74,22.54,29.79,29.79,0,0,1-7.33,1.14c-5.23.18-10.47.05-15.71.07a27.1,27.1,0,0,0-26.24,18.75,27.76,27.76,0,0,0-1.34,7.75c-.21,5.13-.06,10.28-.07,15.43,0,12.85-7.53,23.14-19.87,26.65-3.09.88-6.48.78-9.74,1-1.69.13-3.39,0-5.09,0Z"/><path class="cls-3" d="M399.76,440.42a52.72,52.72,0,0,1-3.8,16.7,39,39,0,0,1-9.11,13.45,42.14,42.14,0,0,1-14.73,9,59.09,59.09,0,0,1-20.51,3.26q-13.22,0-22.93-4.1a42.6,42.6,0,0,1-16.1-11.54A49.25,49.25,0,0,1,303,449.3a77.54,77.54,0,0,1-3.19-22.86,78.54,78.54,0,0,1,3.27-23.31A49.35,49.35,0,0,1,313,385a45.35,45.35,0,0,1,16.4-11.85q9.79-4.25,23-4.25,20.06,0,31.37,9.95t14.35,28.32l-29,3.35a41.65,41.65,0,0,0-2-6.54,16.73,16.73,0,0,0-3.27-5.24,14.78,14.78,0,0,0-5.09-3.49,18.6,18.6,0,0,0-7.29-1.29q-20.81,0-20.81,31.74a63.4,63.4,0,0,0,1.52,15,27.77,27.77,0,0,0,4.33,9.95,16.24,16.24,0,0,0,6.68,5.47,21.35,21.35,0,0,0,8.58,1.67q16,0,18.23-17.31Z"/><path class="cls-3" d="M413.58,371.61h29.16V480.06H413.58Z"/><path class="cls-3" d="M462.79,371.61h25.52l39,62.12V371.61h27.49V480.06H529.62l-39.34-62v62H462.79Z"/><path class="cls-3" d="M597.67,444.37q.9,7.59,5.62,11.31t13.82,3.72q7.74,0,11.62-2.73a8.93,8.93,0,0,0,3.87-7.75,8.41,8.41,0,0,0-2.58-6.3q-2.58-2.5-9.42-3.87L606.17,436q-18.07-3.33-26.73-11.24t-8.66-21.87q0-16.86,11.62-25.44t32-8.58a65.49,65.49,0,0,1,20.2,2.73,40,40,0,0,1,13.67,7.29,30.38,30.38,0,0,1,8,10.56,41.57,41.57,0,0,1,3.5,12.53l-28.25,2.89q-1.37-6.54-5.24-9.72T614.22,392q-7.44,0-11,2.5a7.86,7.86,0,0,0-3.57,6.76,7.35,7.35,0,0,0,2.89,6.08q2.88,2.26,9.26,3.49l14.73,2.88q19.14,3.81,27.19,12.23t8,21.34A37.43,37.43,0,0,1,659,461.83,28.57,28.57,0,0,1,650.67,473a40.13,40.13,0,0,1-14.27,7.21,71.61,71.61,0,0,1-20.35,2.58q-45.12-.3-47.39-38.42Z"/><path class="cls-3" d="M675.89,480.06V371.61h42.68q27,0,40.93,13.52t13.9,39.49q0,26.73-14.66,41.09T716.9,480.06Zm29.16-24.61h12.3q13.36,0,19.59-7.82t6.23-22.1q0-14.28-5.77-21.79t-18.53-7.52H705.05Z"/><path class="cls-3" d="M846.61,371.61l37.67,108.45H854.05l-6.23-20.81h-36.6l-6.08,20.81H775.83L813.5,371.61ZM818.36,436h22.32l-11.09-37.36Z"/><path class="cls-3" d="M906.14,396.37H874.86V371.61H966.6v24.76H935.31v83.69H906.14Z"/><path class="cls-3" d="M1028,371.61l37.67,108.45H1035.4l-6.23-20.81h-36.6l-6.08,20.81H957.18l37.67-108.45ZM999.71,436H1022L1011,398.65Z"/><path class="cls-3" d="M384.55,537.52l-2.43,7.42H379l8-23.6h3.67l8.05,23.6h-3.25l-2.53-7.42Zm7.75-2.38L390,528.35c-.51-1.54-.87-3-1.22-4.3h-.08c-.34,1.38-.71,2.82-1.17,4.26l-2.33,6.83Z"/><path class="cls-3" d="M412.62,521.34v14c0,5.26,2.33,7.49,5.51,7.49,3.48,0,5.74-2.31,5.74-7.49v-14h3.06v13.77c0,7.25-3.81,10.21-8.93,10.21-4.81,0-8.45-2.75-8.45-10.08v-13.9Z"/><path class="cls-3" d="M457.61,543.88a21.52,21.52,0,0,1-7.25,1.29c-3.58,0-6.53-.9-8.82-3.11a12,12,0,0,1-3.28-8.76c0-7,4.85-12.19,12.75-12.19a14.88,14.88,0,0,1,5.9,1.08l-.76,2.49a11.91,11.91,0,0,0-5.21-1c-5.72,0-9.48,3.56-9.48,9.47s3.59,9.52,9.11,9.52a9.88,9.88,0,0,0,4.05-.64v-7h-4.78v-2.44h7.77Z"/><path class="cls-3" d="M489.57,534.58c-.18-3.28-.4-7.26-.38-10.18h-.09c-.81,2.74-1.79,5.71-3,9L482,544.79h-2.3l-3.84-11.23c-1.13-3.34-2-6.36-2.7-9.16H473c-.08,2.94-.23,6.87-.46,10.41l-.63,10.13h-2.89l1.64-23.6h3.89l4,11.42c1,2.89,1.76,5.49,2.38,8h.09c.62-2.39,1.44-5,2.49-7.94l4.21-11.43h3.9l1.46,23.6h-3Z"/><path class="cls-3" d="M517.43,533.88h-9.15v8.52h10.23v2.54H505.22v-23.6H518v2.54h-9.69v7.47h9.15Z"/><path class="cls-3" d="M529.86,544.94v-23.6h3.35l7.56,11.93A68.54,68.54,0,0,1,545,541l.08,0c-.27-3.15-.33-6-.33-9.68v-9.89h2.87v23.6H544.5L537,533a77.89,77.89,0,0,1-4.39-7.9l-.11,0c.19,3,.23,5.83.23,9.73v10.09Z"/><path class="cls-3" d="M563.38,523.92h-7.19v-2.58h17.47v2.58h-7.22v21h-3.06Z"/><path class="cls-3" d="M586.75,521.34v23.6h-3.06v-23.6Z"/><path class="cls-3" d="M599.47,544.94v-23.6h3.35l7.56,11.93a70.39,70.39,0,0,1,4.21,7.68l.08,0c-.28-3.15-.34-6-.34-9.68v-9.89h2.88v23.6h-3.1l-7.5-12a79.89,79.89,0,0,1-4.39-7.9l-.1,0c.18,3,.22,5.83.22,9.73v10.09Z"/><path class="cls-3" d="M647.9,543.88a21.52,21.52,0,0,1-7.25,1.29c-3.58,0-6.53-.9-8.82-3.11a12,12,0,0,1-3.28-8.76c0-7,4.85-12.19,12.75-12.19a14.88,14.88,0,0,1,5.9,1.08l-.76,2.49a11.88,11.88,0,0,0-5.21-1c-5.72,0-9.48,3.56-9.48,9.47s3.59,9.52,9.11,9.52a9.85,9.85,0,0,0,4-.64v-7h-4.78v-2.44h7.77Z"/><path class="cls-3" d="M685.27,521.34v23.6h-3.06v-23.6Z"/><path class="cls-3" d="M698,544.94v-23.6h3.34l7.56,11.93a67.14,67.14,0,0,1,4.21,7.68l.08,0c-.28-3.15-.33-6-.33-9.68v-9.89h2.87v23.6h-3.1l-7.5-12a79.89,79.89,0,0,1-4.39-7.9l-.1,0c.18,3,.22,5.83.22,9.73v10.09Z"/><path class="cls-3" d="M731.51,523.92h-7.18v-2.58H741.8v2.58h-7.22v21h-3.07Z"/><path class="cls-3" d="M764,533.88h-9.14v8.52h10.23v2.54h-13.3v-23.6h12.76v2.54h-9.69v7.47H764Z"/><path class="cls-3" d="M776.46,521.34h3.07v21h10.08v2.57H776.46Z"/><path class="cls-3" d="M800.4,521.34h3.06v21h10.09v2.57H800.4Z"/><path class="cls-3" d="M827.4,521.34v23.6h-3.06v-23.6Z"/><path class="cls-3" d="M858.11,543.88a21.64,21.64,0,0,1-7.26,1.29c-3.57,0-6.52-.9-8.82-3.11a12.08,12.08,0,0,1-3.28-8.76c0-7,4.85-12.19,12.76-12.19a15,15,0,0,1,5.9,1.08l-.76,2.49a11.93,11.93,0,0,0-5.22-1c-5.72,0-9.47,3.56-9.47,9.47s3.58,9.52,9.11,9.52a9.79,9.79,0,0,0,4-.64v-7h-4.77v-2.44h7.77Z"/><path class="cls-3" d="M882.37,533.88h-9.15v8.52h10.23v2.54H870.16v-23.6h12.75v2.54h-9.69v7.47h9.15Z"/><path class="cls-3" d="M894.79,544.94v-23.6h3.35l7.56,11.93a67.14,67.14,0,0,1,4.21,7.68l.08,0c-.28-3.15-.33-6-.33-9.68v-9.89h2.87v23.6h-3.1l-7.5-12a79.89,79.89,0,0,1-4.39-7.9l-.1,0c.18,3,.22,5.83.22,9.73v10.09Z"/><path class="cls-3" d="M941.73,544.18a15.21,15.21,0,0,1-6.23,1.12c-6.65,0-11.63-4.2-11.63-11.95,0-7.4,5-12.37,12.31-12.37a12.79,12.79,0,0,1,5.6,1L941,524.5a11.09,11.09,0,0,0-4.74-1c-5.54,0-9.21,3.54-9.21,9.74,0,5.77,3.33,9.46,9,9.46a12.36,12.36,0,0,0,5-1Z"/><path class="cls-3" d="M965.17,533.88H956v8.52h10.23v2.54H953v-23.6h12.76v2.54H956v7.47h9.14Z"/></svg>