<?xml version="1.0" encoding="UTF-8" standalone="no"?>
<svg
   xmlns:dc="http://purl.org/dc/elements/1.1/"
   xmlns:cc="http://creativecommons.org/ns#"
   xmlns:rdf="http://www.w3.org/1999/02/22-rdf-syntax-ns#"
   xmlns:svg="http://www.w3.org/2000/svg"
   xmlns="http://www.w3.org/2000/svg"
   xmlns:sodipodi="http://sodipodi.sourceforge.net/DTD/sodipodi-0.dtd"
   xmlns:inkscape="http://www.inkscape.org/namespaces/inkscape"
   id="Capa_1"
   data-name="Capa 1"
   viewBox="0 0 1357 506"
   version="1.1"
   sodipodi:docname="logohome.svg"
   width="1357"
   height="506"
   inkscape:version="0.92.3 (2405546, 2018-03-11)">
  <metadata
     id="metadata73">
    <rdf:RDF>
      <cc:Work
         rdf:about="">
        <dc:format>image/svg+xml</dc:format>
        <dc:type
           rdf:resource="http://purl.org/dc/dcmitype/StillImage" />
        <dc:title></dc:title>
      </cc:Work>
    </rdf:RDF>
  </metadata>
  <sodipodi:namedview
     pagecolor="#ffffff"
     bordercolor="#666666"
     borderopacity="1"
     objecttolerance="10"
     gridtolerance="10"
     guidetolerance="10"
     inkscape:pageopacity="0"
     inkscape:pageshadow="2"
     inkscape:window-width="1366"
     inkscape:window-height="717"
     id="namedview71"
     showgrid="false"
     inkscape:zoom="0.32031943"
     inkscape:cx="179.50831"
     inkscape:cy="303"
     inkscape:window-x="0"
     inkscape:window-y="0"
     inkscape:window-maximized="1"
     inkscape:current-layer="Capa_1" />
  <defs
     id="defs4">
    <style
       id="style2">.cls-1{fill:#791f8f;}.cls-2{fill:#3539d8;}.cls-3{fill:#fff;}</style>
  </defs>
  <path
     class="cls-1"
     d="m 163.74,300.71 c -2,-0.33 -4,-0.51 -6,-1 -14.06,-3.57 -22.74,-12.54 -26.17,-26.57 a 34.57,34.57 0 0 1 -0.68,-7.42 c -0.18,-10.26 -3.9,-19 -11.48,-25.85 A 33,33 0 0 0 99,231.1 c -4.55,-0.31 -9.16,-0.18 -13.57,-1.73 -13.29,-4.7 -21.23,-13.93 -23.67,-27.84 a 24.79,24.79 0 0 1 -0.31,-4.31 q 0,-35.58 0,-71.17 A 34.25,34.25 0 0 1 95.51,92.19 q 35.55,0 71.09,0 A 34.17,34.17 0 0 1 199.88,120 c 2.16,12 -0.65,22.62 -9.2,31.4 a 33.1,33.1 0 0 1 -24.5,10.27 c -10.67,0 -19.74,3.87 -26.84,11.94 A 34,34 0 0 0 131,192.71 34.5,34.5 0 0 0 165.46,231 c 10.16,0 18.89,3.54 25.87,11 a 33.06,33.06 0 0 1 8.93,19.31 c 1,8.85 -0.64,17.09 -5.82,24.41 a 33.55,33.55 0 0 1 -25.23,14.69 8.14,8.14 0 0 0 -1.27,0.32 z"
     id="path6"
     inkscape:connector-curvature="0"
     style="fill:#791f8f" />
  <path
     class="cls-2"
     d="m 251.46,231.22 c -3.19,0 -6.39,0.09 -9.57,0 -11.29,-0.38 -21.63,-8.8 -24.5,-20.27 a 21.37,21.37 0 0 1 -0.78,-5.31 c 0.06,-7.28 -0.21,-14.6 0.55,-21.82 1.08,-10.31 10.73,-19.9 21,-21.47 a 86.89,86.89 0 0 1 10.72,-0.62 c 3.44,-0.1 6.88,0 10.32,0 a 27.22,27.22 0 0 0 26.65,-22.06 33.88,33.88 0 0 0 0.48,-5.95 c 0,-5 0,-10 -0.08,-15 -0.29,-12.42 -10.18,-23.7 -22.53,-25.34 -4.72,-0.62 -9.55,-0.37 -14.32,-0.58 -4,-0.18 -8,0 -11.9,-0.74 -11,-2 -20.05,-12.33 -20.65,-23.44 a 193.47,193.47 0 0 1 0,-21.54 c 0.65,-11.51 10.94,-22.15 22.61,-23.44 5.18,-0.57 10.45,-0.3 15.68,-0.39 a 39.46,39.46 0 0 1 12,1.16 c 9.86,2.88 18.06,12.53 18.73,22.76 0.38,5.86 0.28,11.77 0.3,17.65 a 27.1,27.1 0 0 0 20.91,26.51 30.91,30.91 0 0 0 6.5,0.8 c 5.33,0.11 10.67,0 16,0 a 26.83,26.83 0 0 1 25.74,21.87 49,49 0 0 1 0.56,8 c 0,5.29 0.16,10.61 -0.29,15.86 a 26.38,26.38 0 0 1 -18.74,22.54 29.79,29.79 0 0 1 -7.33,1.14 c -5.23,0.18 -10.47,0.05 -15.71,0.07 a 27.1,27.1 0 0 0 -26.24,18.75 27.76,27.76 0 0 0 -1.34,7.75 c -0.21,5.13 -0.06,10.28 -0.07,15.43 0,12.85 -7.53,23.14 -19.87,26.65 -3.09,0.88 -6.48,0.78 -9.74,1 -1.69,0.13 -3.39,0 -5.09,0 z"
     id="path8"
     inkscape:connector-curvature="0"
     style="fill:#3539d8" />
  <path
     class="cls-3"
     d="m 399.76,340.42 a 52.72,52.72 0 0 1 -3.8,16.7 39,39 0 0 1 -9.11,13.45 42.14,42.14 0 0 1 -14.73,9 59.09,59.09 0 0 1 -20.51,3.26 q -13.22,0 -22.93,-4.1 A 42.6,42.6 0 0 1 312.58,367.19 49.25,49.25 0 0 1 303,349.3 77.54,77.54 0 0 1 299.81,326.44 78.54,78.54 0 0 1 303.08,303.13 49.35,49.35 0 0 1 313,285 45.35,45.35 0 0 1 329.4,273.15 q 9.79,-4.25 23,-4.25 20.06,0 31.37,9.95 11.31,9.95 14.35,28.32 l -29,3.35 a 41.65,41.65 0 0 0 -2,-6.54 16.73,16.73 0 0 0 -3.27,-5.24 14.78,14.78 0 0 0 -5.09,-3.49 18.6,18.6 0 0 0 -7.29,-1.29 q -20.81,0 -20.81,31.74 a 63.4,63.4 0 0 0 1.52,15 27.77,27.77 0 0 0 4.33,9.95 16.24,16.24 0 0 0 6.68,5.47 21.35,21.35 0 0 0 8.58,1.67 q 16,0 18.23,-17.31 z"
     id="path10"
     inkscape:connector-curvature="0"
     style="fill:#ffffff" />
  <path
     class="cls-3"
     d="m 413.58,271.61 h 29.16 v 108.45 h -29.16 z"
     id="path12"
     inkscape:connector-curvature="0"
     style="fill:#ffffff" />
  <path
     class="cls-3"
     d="m 462.79,271.61 h 25.52 l 39,62.12 v -62.12 h 27.49 v 108.45 h -25.18 l -39.34,-62 v 62 h -27.49 z"
     id="path14"
     inkscape:connector-curvature="0"
     style="fill:#ffffff" />
  <path
     class="cls-3"
     d="m 597.67,344.37 q 0.9,7.59 5.62,11.31 4.72,3.72 13.82,3.72 7.74,0 11.62,-2.73 a 8.93,8.93 0 0 0 3.87,-7.75 8.41,8.41 0 0 0 -2.58,-6.3 q -2.58,-2.5 -9.42,-3.87 L 606.17,336 q -18.07,-3.33 -26.73,-11.24 -8.66,-7.91 -8.66,-21.87 0,-16.86 11.62,-25.44 11.62,-8.58 32,-8.58 a 65.49,65.49 0 0 1 20.2,2.73 40,40 0 0 1 13.67,7.29 30.38,30.38 0 0 1 8,10.56 41.57,41.57 0 0 1 3.5,12.53 l -28.25,2.89 q -1.37,-6.54 -5.24,-9.72 -3.87,-3.18 -12.06,-3.15 -7.44,0 -11,2.5 a 7.86,7.86 0 0 0 -3.57,6.76 7.35,7.35 0 0 0 2.89,6.08 q 2.88,2.26 9.26,3.49 l 14.73,2.88 q 19.14,3.81 27.19,12.23 8.05,8.42 8,21.34 a 37.43,37.43 0 0 1 -2.72,14.55 28.57,28.57 0 0 1 -8.33,11.17 40.13,40.13 0 0 1 -14.27,7.21 71.61,71.61 0 0 1 -20.35,2.58 q -45.12,-0.3 -47.39,-38.42 z"
     id="path16"
     inkscape:connector-curvature="0"
     style="fill:#ffffff" />
  <path
     class="cls-3"
     d="M 675.89,380.06 V 271.61 h 42.68 q 27,0 40.93,13.52 13.93,13.52 13.9,39.49 0,26.73 -14.66,41.09 -14.66,14.36 -41.84,14.35 z m 29.16,-24.61 h 12.3 q 13.36,0 19.59,-7.82 6.23,-7.82 6.23,-22.1 0,-14.28 -5.77,-21.79 -5.77,-7.51 -18.53,-7.52 h -13.82 z"
     id="path18"
     inkscape:connector-curvature="0"
     style="fill:#ffffff" />
  <path
     class="cls-3"
     d="m 846.61,271.61 37.67,108.45 h -30.23 l -6.23,-20.81 h -36.6 l -6.08,20.81 H 775.83 L 813.5,271.61 Z M 818.36,336 h 22.32 l -11.09,-37.36 z"
     id="path20"
     inkscape:connector-curvature="0"
     style="fill:#ffffff" />
  <path
     class="cls-3"
     d="m 906.14,296.37 h -31.28 v -24.76 h 91.74 v 24.76 h -31.29 v 83.69 h -29.17 z"
     id="path22"
     inkscape:connector-curvature="0"
     style="fill:#ffffff" />
  <path
     class="cls-3"
     d="m 1028,271.61 37.67,108.45 h -30.27 l -6.23,-20.81 h -36.6 l -6.08,20.81 H 957.18 L 994.85,271.61 Z M 999.71,336 H 1022 l -11,-37.35 z"
     id="path24"
     inkscape:connector-curvature="0"
     style="fill:#ffffff" />
  <path
     class="cls-3"
     d="m 384.55,437.52 -2.43,7.42 H 379 l 8,-23.6 h 3.67 l 8.05,23.6 h -3.25 l -2.53,-7.42 z m 7.75,-2.38 -2.3,-6.79 c -0.51,-1.54 -0.87,-3 -1.22,-4.3 h -0.08 c -0.34,1.38 -0.71,2.82 -1.17,4.26 l -2.33,6.83 z"
     id="path26"
     inkscape:connector-curvature="0"
     style="fill:#ffffff" />
  <path
     class="cls-3"
     d="m 412.62,421.34 v 14 c 0,5.26 2.33,7.49 5.51,7.49 3.48,0 5.74,-2.31 5.74,-7.49 v -14 h 3.06 v 13.77 c 0,7.25 -3.81,10.21 -8.93,10.21 -4.81,0 -8.45,-2.75 -8.45,-10.08 v -13.9 z"
     id="path28"
     inkscape:connector-curvature="0"
     style="fill:#ffffff" />
  <path
     class="cls-3"
     d="m 457.61,443.88 a 21.52,21.52 0 0 1 -7.25,1.29 c -3.58,0 -6.53,-0.9 -8.82,-3.11 a 12,12 0 0 1 -3.28,-8.76 c 0,-7 4.85,-12.19 12.75,-12.19 a 14.88,14.88 0 0 1 5.9,1.08 l -0.76,2.49 a 11.91,11.91 0 0 0 -5.21,-1 c -5.72,0 -9.48,3.56 -9.48,9.47 0,5.91 3.59,9.52 9.11,9.52 a 9.88,9.88 0 0 0 4.05,-0.64 v -7 h -4.78 v -2.44 h 7.77 z"
     id="path30"
     inkscape:connector-curvature="0"
     style="fill:#ffffff" />
  <path
     class="cls-3"
     d="m 489.57,434.58 c -0.18,-3.28 -0.4,-7.26 -0.38,-10.18 h -0.09 c -0.81,2.74 -1.79,5.71 -3,9 l -4.1,11.39 h -2.3 l -3.84,-11.23 c -1.13,-3.34 -2,-6.36 -2.7,-9.16 H 473 c -0.08,2.94 -0.23,6.87 -0.46,10.41 l -0.63,10.13 h -2.89 l 1.64,-23.6 h 3.89 l 4,11.42 c 1,2.89 1.76,5.49 2.38,8 h 0.09 c 0.62,-2.39 1.44,-5 2.49,-7.94 l 4.21,-11.43 h 3.9 l 1.46,23.6 h -3 z"
     id="path32"
     inkscape:connector-curvature="0"
     style="fill:#ffffff" />
  <path
     class="cls-3"
     d="m 517.43,433.88 h -9.15 v 8.52 h 10.23 v 2.54 h -13.29 v -23.6 H 518 v 2.54 h -9.69 v 7.47 h 9.15 z"
     id="path34"
     inkscape:connector-curvature="0"
     style="fill:#ffffff" />
  <path
     class="cls-3"
     d="m 529.86,444.94 v -23.6 h 3.35 l 7.56,11.93 A 68.54,68.54 0 0 1 545,441 h 0.08 c -0.27,-3.15 -0.33,-6 -0.33,-9.68 v -9.89 h 2.87 v 23.6 H 544.5 L 537,433 a 77.89,77.89 0 0 1 -4.39,-7.9 h -0.11 c 0.19,3 0.23,5.83 0.23,9.73 v 10.09 z"
     id="path36"
     inkscape:connector-curvature="0"
     style="fill:#ffffff" />
  <path
     class="cls-3"
     d="m 563.38,423.92 h -7.19 v -2.58 h 17.47 v 2.58 h -7.22 v 21 h -3.06 z"
     id="path38"
     inkscape:connector-curvature="0"
     style="fill:#ffffff" />
  <path
     class="cls-3"
     d="m 586.75,421.34 v 23.6 h -3.06 v -23.6 z"
     id="path40"
     inkscape:connector-curvature="0"
     style="fill:#ffffff" />
  <path
     class="cls-3"
     d="m 599.47,444.94 v -23.6 h 3.35 l 7.56,11.93 a 70.39,70.39 0 0 1 4.21,7.68 h 0.08 c -0.28,-3.15 -0.34,-6 -0.34,-9.68 v -9.89 h 2.88 v 23.6 h -3.1 l -7.5,-12 a 79.89,79.89 0 0 1 -4.39,-7.9 h -0.1 c 0.18,3 0.22,5.83 0.22,9.73 v 10.09 z"
     id="path42"
     inkscape:connector-curvature="0"
     style="fill:#ffffff" />
  <path
     class="cls-3"
     d="m 647.9,443.88 a 21.52,21.52 0 0 1 -7.25,1.29 c -3.58,0 -6.53,-0.9 -8.82,-3.11 a 12,12 0 0 1 -3.28,-8.76 c 0,-7 4.85,-12.19 12.75,-12.19 a 14.88,14.88 0 0 1 5.9,1.08 l -0.76,2.49 a 11.88,11.88 0 0 0 -5.21,-1 c -5.72,0 -9.48,3.56 -9.48,9.47 0,5.91 3.59,9.52 9.11,9.52 a 9.85,9.85 0 0 0 4,-0.64 v -7 h -4.78 v -2.44 h 7.77 z"
     id="path44"
     inkscape:connector-curvature="0"
     style="fill:#ffffff" />
  <path
     class="cls-3"
     d="m 685.27,421.34 v 23.6 h -3.06 v -23.6 z"
     id="path46"
     inkscape:connector-curvature="0"
     style="fill:#ffffff" />
  <path
     class="cls-3"
     d="m 698,444.94 v -23.6 h 3.34 l 7.56,11.93 a 67.14,67.14 0 0 1 4.21,7.68 h 0.08 c -0.28,-3.15 -0.33,-6 -0.33,-9.68 v -9.89 h 2.87 v 23.6 h -3.1 l -7.5,-12 a 79.89,79.89 0 0 1 -4.39,-7.9 h -0.1 c 0.18,3 0.22,5.83 0.22,9.73 v 10.09 z"
     id="path48"
     inkscape:connector-curvature="0"
     style="fill:#ffffff" />
  <path
     class="cls-3"
     d="m 731.51,423.92 h -7.18 v -2.58 h 17.47 v 2.58 h -7.22 v 21 h -3.07 z"
     id="path50"
     inkscape:connector-curvature="0"
     style="fill:#ffffff" />
  <path
     class="cls-3"
     d="m 764,433.88 h -9.14 v 8.52 h 10.23 v 2.54 h -13.3 v -23.6 h 12.76 v 2.54 h -9.69 v 7.47 H 764 Z"
     id="path52"
     inkscape:connector-curvature="0"
     style="fill:#ffffff" />
  <path
     class="cls-3"
     d="m 776.46,421.34 h 3.07 v 21 h 10.08 v 2.57 h -13.15 z"
     id="path54"
     inkscape:connector-curvature="0"
     style="fill:#ffffff" />
  <path
     class="cls-3"
     d="m 800.4,421.34 h 3.06 v 21 h 10.09 v 2.57 H 800.4 Z"
     id="path56"
     inkscape:connector-curvature="0"
     style="fill:#ffffff" />
  <path
     class="cls-3"
     d="m 827.4,421.34 v 23.6 h -3.06 v -23.6 z"
     id="path58"
     inkscape:connector-curvature="0"
     style="fill:#ffffff" />
  <path
     class="cls-3"
     d="m 858.11,443.88 a 21.64,21.64 0 0 1 -7.26,1.29 c -3.57,0 -6.52,-0.9 -8.82,-3.11 a 12.08,12.08 0 0 1 -3.28,-8.76 c 0,-7 4.85,-12.19 12.76,-12.19 a 15,15 0 0 1 5.9,1.08 l -0.76,2.49 a 11.93,11.93 0 0 0 -5.22,-1 c -5.72,0 -9.47,3.56 -9.47,9.47 0,5.91 3.58,9.52 9.11,9.52 a 9.79,9.79 0 0 0 4,-0.64 v -7 h -4.77 v -2.44 h 7.77 z"
     id="path60"
     inkscape:connector-curvature="0"
     style="fill:#ffffff" />
  <path
     class="cls-3"
     d="m 882.37,433.88 h -9.15 v 8.52 h 10.23 v 2.54 h -13.29 v -23.6 h 12.75 v 2.54 h -9.69 v 7.47 h 9.15 z"
     id="path62"
     inkscape:connector-curvature="0"
     style="fill:#ffffff" />
  <path
     class="cls-3"
     d="m 894.79,444.94 v -23.6 h 3.35 l 7.56,11.93 a 67.14,67.14 0 0 1 4.21,7.68 h 0.08 c -0.28,-3.15 -0.33,-6 -0.33,-9.68 v -9.89 h 2.87 v 23.6 h -3.1 l -7.5,-12 a 79.89,79.89 0 0 1 -4.39,-7.9 h -0.1 c 0.18,3 0.22,5.83 0.22,9.73 v 10.09 z"
     id="path64"
     inkscape:connector-curvature="0"
     style="fill:#ffffff" />
  <path
     class="cls-3"
     d="m 941.73,444.18 a 15.21,15.21 0 0 1 -6.23,1.12 c -6.65,0 -11.63,-4.2 -11.63,-11.95 0,-7.4 5,-12.37 12.31,-12.37 a 12.79,12.79 0 0 1 5.6,1 L 941,424.5 a 11.09,11.09 0 0 0 -4.74,-1 c -5.54,0 -9.21,3.54 -9.21,9.74 0,5.77 3.33,9.46 9,9.46 a 12.36,12.36 0 0 0 5,-1 z"
     id="path66"
     inkscape:connector-curvature="0"
     style="fill:#ffffff" />
  <path
     class="cls-3"
     d="M 965.17,433.88 H 956 v 8.52 h 10.23 v 2.54 H 953 v -23.6 h 12.76 v 2.54 H 956 v 7.47 h 9.14 z"
     id="path68"
     inkscape:connector-curvature="0"
     style="fill:#ffffff" />
</svg>
